<?xml version="1.0" encoding="UTF-8"?>
<svg id="Camada_1" xmlns="http://www.w3.org/2000/svg" version="1.1" viewBox="0 0 1080 1080">
  <!-- Generator: Adobe Illustrator 29.1.0, SVG Export Plug-In . SVG Version: 2.1.0 Build 142)  -->
  <defs>
    <style>
      .st0 {
        fill: #232d5b;
      }
    </style>
  </defs>
  <path class="st0" d="M0,309.9c9.1-34.7,33.1-63.9,68.5-73.5,4-1.1,18-4.3,20.9-4.3h173.6v-85.2c0-33.2,53.3-81.7,87.6-80.7,120.7,5.9,250.4-8.8,370.2-.4,31.6,2.2,61.5,18.9,78.4,45.7,3.6,5.7,15.1,29.9,15.1,35.4v85.2h173.6c43.6,0,85.8,42.6,89.5,85.1,3.3,38,4.7,159-3.2,192.6-6.4,27.4-23.2,46.2-38.9,68.4l-.6,361.3c-8.8,42.2-45,75.4-88.8,77.4H129.3c-43.2-3.4-77.8-35.6-86.7-77.4l-.6-361.3-28.4-41L0,499.3v-189.4ZM326.1,163.6c-2.8,20.7,2.1,47,0,68.4h425v-68.4c0-11.2-12.6-27.7-23.7-31-125.3-2.7-252.2-2.7-377.6,0-13,5-21.8,17.3-23.7,31ZM648.1,633.9c53-3.5,106-10.5,157.8-22.1,60.5-13.6,188.2-50.6,205.2-118.8,6.8-27.4,6.2-132.3,3.1-163.1-1.9-18.7-13.2-31.5-32.5-32.7-298.3,1.2-596.9-1.9-895,1.5-14.8,4.8-22,16.1-23.5,31.2-3.6,36.1-3.1,108.6,0,145.1,6,71.4,99.5,106,158.3,123.7,67.3,20.2,137.8,30.3,207.8,35.2v-36.8c0-9,20.7-25.2,30.7-24,49.2,2.4,102.6-3.9,151.4-.3,12.3.9,36.7,9.7,36.7,24.3v36.8ZM105.2,621.3v301.9c0,11.1,13.9,28.7,26.3,28.5,273.6-1.2,547.8,2.1,821.1-1.7,9-2.1,19.5-18.6,19.5-26.8v-301.9c-99.6,52-214.8,69.3-326.1,77.9-20.2,112.8-194.5,112.6-214.8,0-111.7-8.9-226-25.6-326.1-77.9ZM584.9,638.1h-92.6v43.1c0,14.5,16.7,33.7,31,36.3s27.1,1.4,35.4-1.5c12.2-4.3,26.2-21.9,26.2-34.8v-43.1Z"/>
</svg>