<?xml version="1.0" encoding="UTF-8"?>
<svg id="Camada_1" xmlns="http://www.w3.org/2000/svg" version="1.1" viewBox="0 0 1080 1080">
  <!-- Generator: Adobe Illustrator 29.1.0, SVG Export Plug-In . SVG Version: 2.1.0 Build 142)  -->
  <defs>
    <style>
      .st0 {
        fill: #232d5b;
      }
    </style>
  </defs>
  <path class="st0" d="M0,658.3c4.7-6.4,7.1-11.7,14.1-16.5,26.6-18.6,94.4-49.4,126.1-46.7,12.9,1.1,22.7,6.8,34.7,9.5,34.1-26.5,63.5-61.2,102-81.6,69.1-36.6,154.8-33.5,221.3,7.1,18.6,11.3,47,40.5,66.3,43.3,53.5,7.9,123.2-4.3,178.7.5,36.8,3.2,65,31.5,80,63.3l89.5-96c81-81.5,209.5,11.9,153.6,113.5-88.8,99.6-162.2,286.7-312.7,298.7h-395.3c3.4,79.3-71.8,94.5-126.5,126.5h-21.1c-6.1-4.8-13.7-7.8-17.3-15.4L0,679.4v-21.1ZM335.5,889.9l392.9.4c56.3-3.2,93.8-21.6,129.5-64.4,52.2-62.6,97.3-135.3,149-198.9,21.7-29.5-6.6-64-39.2-47.6-54.5,54.4-103.5,114.7-159.6,167.2-11.6,8-29.7,16-43.8,17.3-62.9,5.8-134.5-4.6-198.4,0-38-3.7-36.5-59.3-2.1-63.4,49.8-6,111.3,4.5,162.5.1,47.9-4.1,48.6-59.2,0-63.4-49.4-4.3-157,10.3-196.5-5.9-34.5-14.2-56.2-46.9-95.6-60.4-88.4-30.1-146.5,16.5-206.5,73.7s-8.3,6.9-8.4,10.5l116.2,234.8ZM234.2,1003.9c2.4,1.7,36.5-15.2,41.4-18.4,15.7-10.3,20.7-21.2,16.1-40.1l-133.8-268.8c-23.7-34.8-53.8-5.2-81.7,5.1l.2,4.6,157.9,317.6Z"/>
  <path class="st0" d="M666.2,217.7c52.1,25.9,92.2,88.5,97.1,146.5,1.1,13.4,1.7,46.4-.2,59-1.6,10.4-11.4,19.8-20.9,23.4l-332.2,1.1c-13.9-.4-26.7-12.7-28.4-26.4-3.2-26.3,0-66.3,7.4-91.8,14-47.8,47.9-86.8,89.6-112.8-35.9-40.5-45.5-97.7-20.1-146.5C495.4-.7,589.5-23.4,652.4,28c58.8,48.1,63.7,133.1,13.8,189.6ZM572.7,64.6c-82.7,1.2-84.1,128,1.4,127,84.1-1,77.7-128.1-1.4-127ZM699.9,384.3c-2.7-16-3.3-29.3-8.9-44.8-24.8-68.7-102.7-101.4-169.6-71.5-45.8,20.5-74.2,66.6-76.6,116.3h255.1Z"/>
</svg>