<?xml version="1.0" encoding="UTF-8"?>
<svg id="Camada_1" xmlns="http://www.w3.org/2000/svg" version="1.1" viewBox="0 0 1080 1080">
  <!-- Generator: Adobe Illustrator 29.1.0, SVG Export Plug-In . SVG Version: 2.1.0 Build 142)  -->
  <defs>
    <style>
      .st0 {
        fill: #232d5b;
      }
    </style>
  </defs>
  <path class="st0" d="M417.2.5c13.6,4.4,28.3,4.4,42.2,7.3,250.2,52.8,372.6,332.4,251,556.7-3.6,6.7-18.1,24.7-16.9,30.7l124.9,142.9c16.3,4.1,32.7-1.3,46.5,12.5l197,194.9c59.3,84.8-40,179.4-122.2,109.6-65.7-55.8-124.4-131.9-189.6-189.7-13.9-15.8-9.5-35.8-15.9-53.6l-120.3-134.8c-127.5,98.9-305.2,108.3-441,19.7C68.8,628.8,3.7,512.1,2.2,387.2c0-3.6,1.4-9.4-2.1-11.6,0-1.4,0-2.8,0-4.2C9.6,182.2,149.4,16.6,343.5.5h73.8ZM349.4,43.3C93.5,63.7-44.2,361.7,100.3,573.5c134.6,197.2,431.2,196.1,563.1-3.4C821.5,330.8,633.7,20.6,349.4,43.3ZM666.9,626.4c-3.6,9.1-19.8,18.5-23.3,25.3-.8,1.6-1.4,2.6,0,4.1l110.7,125.6c4.6,2.9,26.6-18.4,28.6-22.3.8-1.6,1.4-2.6,0-4.2l-116-128.5ZM819.1,776.4c-2.9.9-41.3,39-42.5,41.7-3.8,8.3-.7,21.5,5.2,28.4l185.6,185.3c42.2,33.5,97.9-11.8,67.2-58.8l-191.7-191.8c-5.8-4.9-16.8-6.9-23.9-4.7Z"/>
  <path class="st0" d="M990.4,776h-37.9V172.3c0-6.9-13.9-26.1-20-30.5s-21.7-10.5-27.4-10.5h-203.3v-34.8c0-.2,2.9-3.2,3.2-3.2h196c38.6,0,89.6,38.2,89.6,79v603.7Z"/>
  <path class="st0" d="M130.7,721.2v188.6c0,9.6,14.2,29.1,22.1,34.8,7.1,5.1,23.3,10.5,31.6,10.5h626.9v35.8H167.5c-35.5,0-74.8-51-74.8-85.3v-184.4h37.9Z"/>
  <rect class="st0" x="164.4" y="864.5" width="558.4" height="37.9"/>
  <path class="st0" d="M651.1,792.8v34.8c0,.2-2.9,3.2-3.2,3.2H164.4v-37.9h486.8Z"/>
  <rect class="st0" x="756.5" y="183.8" width="162.3" height="37.9"/>
  <rect class="st0" x="792.3" y="272.3" width="126.4" height="37.9"/>
  <rect class="st0" x="792.3" y="363" width="126.4" height="37.9"/>
  <rect class="st0" x="792.3" y="451.5" width="126.4" height="37.9"/>
  <rect class="st0" x="792.3" y="542.1" width="126.4" height="37.9"/>
  <path class="st0" d="M918.8,630.6v37.9h-109.6v-34.8c0-.2,2.9-3.2,3.2-3.2h106.4Z"/>
  <path class="st0" d="M357.8,77c249-18.2,414.5,255,281.6,467-129.9,207.2-441.4,183.6-538.6-40.5C17.3,310.9,149.3,92.3,357.8,77ZM353.6,114.9c-188.5,15.9-297.6,227.2-209.3,393.4,96.4,181.4,359.8,188.9,465.5,12.4,114.6-191.2-35.6-424.5-256.3-405.9Z"/>
  <path class="st0" d="M353.6,277.2c77.1-6,153.4,16.5,212.1,66.9,7.4,6.3,30.4,27.8,35,34.7,3.6,5.3-3.1,12.5-6.5,16.9-39.8,50.8-129.4,88-192.8,91.7-80.2,4.7-182.3-31.3-232.8-95.9-9.2-11.8-6.8-13.7,2.1-25.2,36.7-47.3,124.2-84.4,182.9-89ZM345.6,316.6c-51.3,5.6-98.4,31.1-136.9,64.2,36.6,37,87.4,59.9,139,66.4l-18-12.5c-28.5-28.8-29.5-71.7-3.1-102.3l19-15.7ZM413,447.2c40.7-4.2,81.3-21,114.4-44.6,3.7-2.7,25.2-18.8,24.5-21.6-37-35.1-85.7-59-136.9-64.4l17.9,12.6c28.4,30.2,28.1,80.3-4.3,107.4l-15.7,10.6ZM406,406.5c34.2-34.2-23.9-87.1-54.1-44.6-24.8,35,25.1,73.6,54.1,44.6Z"/>
  <path class="st0" d="M507.9,238.6h-252.9v-37.9h249.7c.2,0,3.2,2.9,3.2,3.2v34.8Z"/>
  <path class="st0" d="M507.9,561h-252.9v-37.9h249.7c.2,0,3.2,2.9,3.2,3.2v34.8Z"/>
</svg>