<?xml version="1.0" encoding="UTF-8"?>
<svg id="Camada_1" xmlns="http://www.w3.org/2000/svg" version="1.1" viewBox="0 0 1080 1080">
  <!-- Generator: Adobe Illustrator 29.1.0, SVG Export Plug-In . SVG Version: 2.1.0 Build 142)  -->
  <defs>
    <style>
      .st0 {
        fill: #232d5b;
      }
    </style>
  </defs>
  <path class="st0" d="M1078.1,501.9c29.5,447.3-469.4,737.6-842.2,483.5C-84.7,766.9-75.8,290.4,251.9,83.3c344-217.4,799.5,15.1,826.2,418.6ZM764.7,472.5c-3.9-23.2-25.1-42.8-48.4-44.6-41.4-3.1-51.2,22.1-75.8,46.7-33.2,33.2-66.4,66.6-100.1,99.4-35.3-31-68.6-65.8-102-99.4-17.1-17.1-32.4-43.4-59.7-46.6-54.6-6.2-84.4,50-50.5,93,47.1,59.8,124.1,114.4,174,174,23.1,17.7,49.5,18.1,73.1,1.3,50.7-60,127.4-115,175.4-175.3,11.8-14.8,17.2-29.2,13.9-48.6Z"/>
</svg>