<?xml version="1.0" encoding="UTF-8"?>
<svg id="Camada_1" xmlns="http://www.w3.org/2000/svg" version="1.1" viewBox="0 0 1080 1080">
  <!-- Generator: Adobe Illustrator 29.1.0, SVG Export Plug-In . SVG Version: 2.1.0 Build 142)  -->
  <defs>
    <style>
      .st0 {
        fill: #ebc894;
      }
    </style>
  </defs>
  <path class="st0" d="M233.5,849.8L2.8,718.4c-4.3-5.4-3-11.6-.5-17.4,2.5-5.8,27.1-36.9,29-38.4,4.7-3.8,10.9-4.1,16.7-3.4l224.5,35.3c10.2-19.4,24.3-37.2,38.9-53.5,121.4-136.6,272.3-270.3,402.2-401.9,78.8-79.8,155.6-174.6,261.6-220.3,35.5-15.3,107.2-37.6,104.7,24.8-2.9,72.2-97.4,189.7-146,242.3-150.3,162.8-326.9,311.5-477.8,475.1l-66.3,49.5,34.6,240.9c0,2.4-1.3,3.9-2.8,5.6-2.8,3.2-57.3,30.5-61.9,17.7l-126.3-224.8h.1Z"/>
  <path class="st0" d="M686,234.8l-188.1,189.6L113.4,213.9c-57.7-29.7-27.3-105.5,33.9-100l538.7,120.9h0Z"/>
  <path class="st0" d="M844.4,400.1c4.1-.9,6.3,3.5,6.8,6.9l115.3,520.8c8.6,50.3-43.4,84-83.6,50.6-76.4-129.3-148-261.7-221.3-392.9l182.7-185.4h0Z"/>
  <path class="st0" d="M231.6,113.6c-1.2-4.8,2-5.5,4.1-8.3,5.5-7.1,52.3-54.8,57.7-58,8.2-4.8,11-3.5,18.2,1.4,4.3,2.9,55.7,54.3,57.8,57.8,8,13.7-5.5,32-20.7,32.1l-117.1-25.1h0Z"/>
  <path class="st0" d="M969.7,849l-27.5-120.2c2.8-11.1,16.5-27.9,29-20.4,3.7,2.2,57.6,56.1,60.6,60.6,4.4,6.5,6.7,11,1.4,18.2l-63.4,61.8h-.1Z"/>
  <path class="st0" d="M533.7,103.1c4.7-1.4,9.5-1.1,13.3,2.1,10.3,16.5,53.8,46.5,60.4,60.8,6.4,13.8-6,28.7-21.2,26.9-24.8-2.9-81.7-16-105.9-23.7-3.5-1.1-6.9-.9-9.1-4.6,13.2-8.8,51.7-58.3,62.5-61.5Z"/>
  <path class="st0" d="M914.6,606.6l-26.5-122.6c10.4-12.8,14.8-19.4,29.3-8.2s42.8,40.4,52.3,52.3,11.2,13.4,1.4,26.3c-7.8,10.2-38,40.2-48.2,48.2-2.8,2.1-3.5,5.3-8.3,4.1h0Z"/>
</svg>