<?xml version="1.0" encoding="UTF-8"?>
<svg id="Camada_1" xmlns="http://www.w3.org/2000/svg" version="1.1" viewBox="0 0 1080 1080">
  <!-- Generator: Adobe Illustrator 29.1.0, SVG Export Plug-In . SVG Version: 2.1.0 Build 142)  -->
  <defs>
    <style>
      .st0 {
        fill: #ebc894;
      }
    </style>
  </defs>
  <path class="st0" d="M532.7,7.3c16.3-3.4,37.2,11.3,52.5,17.7,141.9,58.9,287.9,103.4,440.9,124.2,6,2.2,12.2,7.7,12.4,14.3-6.1,138.3,7.8,283.1,0,420.6-14.2,246.1-204.1,413.1-429.4,476.1-62.1,17.4-77.7,17.1-139.6-.5-225.7-64-414.4-230.8-427.8-477.7-7.4-136.3,5.8-279.2,0-416.3-.7-8.8,6.3-14.6,14.2-16.9,16.5-4.9,41.6-5.7,59.8-9.2C259.4,112.3,400.3,69.9,532.7,7.3ZM313.8,314.6c-167.8,167.8-97.8,458.8,127.8,530.3,248.2,78.7,481.3-154.1,402.5-402.5-71.6-225.8-362.3-295.9-530.3-127.8h0Z"/>
  <path class="st0" d="M611.1,469.6h96.8c.8,0,10.2,9.3,10,12.3-2.7,36.3,3.7,77.9.2,113.6-.4,4.4-5.7,16.6-10.1,16.6h-96.8v96.8c0,4.5-12.1,9.7-16.6,10.1-35.6,3.5-77.2-2.9-113.6-.2-3,.2-12.3-9.2-12.3-10v-96.8h-96.8c-4.5,0-9.7-12.1-10.1-16.6-3.5-35.6,2.9-77.2.2-113.6-.2-3,9.2-12.3,10-12.3h96.8v-96.8c0-4.5,12.1-9.7,16.6-10.1,35.6-3.5,77.2,2.9,113.6.2,3-.2,12.3,9.2,12.3,10v96.8h-.2Z"/>
</svg>