<?xml version="1.0" encoding="UTF-8"?>
<svg id="Camada_1" xmlns="http://www.w3.org/2000/svg" version="1.1" viewBox="0 0 1080 1080">
  <!-- Generator: Adobe Illustrator 29.1.0, SVG Export Plug-In . SVG Version: 2.1.0 Build 142)  -->
  <defs>
    <style>
      .st0 {
        fill: #ebc894;
      }
    </style>
  </defs>
  <path class="st0" d="M960,827.6c9.3-3,15.5-10.2,25.2-13.3,63.3-20.6,118,46.7,84.6,104.4-19.5,33.6-120.7,83.7-158.4,99.6-248,104.8-526.8,53.3-763.7-56.5-31.3-14.5-118.3-54.6-135.6-80.5-42.9-64.4,36.7-141.6,100-98l44.9-85.1c-5-7.5-13.9-9.6-20.5-18.5-14.3-19.4-18.8-71.7,16.5-60.6,17,5.4,5.7,25.3,12.2,36.3,9.9,16.6,10.8-2.4,18.7-7.3,4.3-2.7,9.9-4.2,14.8-2.1,38.6,23.4,77.9,55.4,120.3,71.8,67.4,26.1,111.3-32.3,172.3-46.8l345.2,94.9-38-178.1-21.5-4.9c-3.4,3.1-17.6,75-24.6,89-8.3,16.9-24.5,21.1-42.2,18.5-47-6.9-101.4-32.1-149.4-40.3-21.4-9.2-15.8-36.9,7.4-36.3l146.5,39.2,6-1.8,20.9-79.4-94.2-25.8c-5.3-3.5-8.2-12.9-6.8-18.9l40.5-69.9c1.9-2.5,4.5-4.8,7.5-5.7,15.3-4.8,78.7,21.9,81.7,18.9l113.6-427.8c22.8-53.8,72.9-34.3,116.2-21.5,40.7,12.1,69.7,21.3,62.9,72.7l-142.6,536.7c8.7,66.3,28.5,131,39.5,197.1h0ZM915.9,507.8l111.8-427c-.2-7.1-3.6-12.3-9.7-15.6-5.9-3.3-74.8-22.3-81.3-22.5-6.2-.2-15.5,4.7-17.4,10.9l-113.5,422.5,3.8,4.9,106.4,26.9h-.1ZM849.8,887.2l-583.5-160.9-58.2,106.9c192.4,87.8,419.4,139.1,624.6,62.3l17.1-8.2h0Z"/>
  <path class="st0" d="M339.8,5.6c12.6-2.1,30.9-1.4,41.8,5.6,9.3,5.9,14,19.5,22.6,28.1,49.2,49.4,146,65.8,213,62.9s39.8-11.7,61.6,4.3,17.6,26,18.8,42.9c17.9,240.6-83.6,435.3-307.3,530.8-38,16.2-43,13.2-79.5-2.9C132.3,598.2,19.4,446.8,9.5,248.8c-1.3-24.9-3.3-109.8,6.3-128.4,16.6-32.4,48-19.5,74.2-18.2,66.3,3.2,167.9-14.3,215.2-65.1,12.4-13.3,13.3-27.9,34.6-31.5h0ZM346.6,153.4c-149.8,3.9-239,172.2-162.4,300,75.9,126.5,263.3,126.9,338.8,0,80.3-135.2-20-304-176.4-300Z"/>
  <path class="st0" d="M371.2,241c33.9-13.1,84.2,62.1,46.4,74-31.1,9.8-14.3-34.3-45.5-38.5-26.9-3.6-66.2,3.1-56.7,39.1,8.8,33.4,53.5,15.9,79.4,28.7,44.6,22,48.8,88.4,6.7,115.5-7.5,4.8-28.9,9.6-30,10.8-2.2,2.6,5.9,35.8-18.6,34.4s-15.1-33-16.9-34.6-18.5-1-27-5c-32-15-47.5-75.5-10-69.5,22.8,3.6,5.3,34.9,36,39.1,28.2,3.8,69.9-5.1,55.6-42.4-11.2-29.3-52.9-12.9-78.2-25.4-49.1-24.2-47.5-97.8,3.6-120.7,4.7-2.1,19-4.9,19.7-5.6,3.4-3.9-6.7-22.5,9.2-31.6,20.4-11.7,30.9,14.7,26.2,31.8h0Z"/>
</svg>