<?xml version="1.0" encoding="UTF-8"?>
<svg id="Camada_1" xmlns="http://www.w3.org/2000/svg" version="1.1" viewBox="0 0 1080 1080">
  <!-- Generator: Adobe Illustrator 29.1.0, SVG Export Plug-In . SVG Version: 2.1.0 Build 142)  -->
  <defs>
    <style>
      .st0 {
        fill: #ebc894;
      }
    </style>
  </defs>
  <path class="st0" d="M1067.8,214.7l12.2,42.1v568.8c-8,53.2-48.9,93.7-102.4,100.1H102.6c-54.1-6.4-96-48.3-102.4-102.4V259.1c-1.5-7.2,10.9-46.8,15.8-46.8l397.7,375.9c62.3,53.9,152,62.6,223.6,21.3,137.8-115.5,265.1-244.4,396.9-367.1,6.7-6.2,21.6-21.1,27.7-25.3,2-1.4,2.4-3.4,6-2.4Z"/>
  <path class="st0" d="M1007.6,161.7c2.3,2.9-7.3,11.1-9.6,13.3-126.5,121-257,237.8-383.2,359.1-45.9,36.2-109,34.2-153-3.7L74.9,165.2c-1.8-7.2,24.5-11,30-10.9h872.6s30,7.4,30,7.4Z"/>
</svg>