<?xml version="1.0" encoding="UTF-8"?>
<svg id="Camada_1" xmlns="http://www.w3.org/2000/svg" version="1.1" viewBox="0 0 1080 1080">
  <!-- Generator: Adobe Illustrator 29.1.0, SVG Export Plug-In . SVG Version: 2.1.0 Build 142)  -->
  <defs>
    <style>
      .st0 {
        fill: #ebc894;
      }
    </style>
  </defs>
  <path class="st0" d="M1079.9,495.9v88.5c-3.5,11.3-3.1,24.5-4.8,36.3-34.1,231.6-222.2,420.2-454,454-11.8,1.7-25,1.4-36.3,4.8-29-1.4-59.7,1.9-88.5,0-219.6-14.3-415.4-179.7-475-389.7C-84.2,317.4,217.6-36.1,600.7,3c250.3,25.5,462.8,241.3,479.3,492.9ZM502.3,111C232.3,130.7,49.3,408.5,128.8,666.5c105.8,343.6,566.6,414,768.3,115.3,204.4-302.7-33.3-697.1-394.8-670.8Z"/>
  <path class="st0" d="M568,270.5v281.2l241.4,144.3c1.9,3-1.1,6-2.2,8.5-8.8,19.3-27.3,38.2-35,58.8l-11.8-3.7-274.5-165.7v-323.4h82.2Z"/>
</svg>