<?xml version="1.0" encoding="UTF-8"?>
<svg id="Camada_1" xmlns="http://www.w3.org/2000/svg" version="1.1" viewBox="0 0 1080 1080">
  <!-- Generator: Adobe Illustrator 29.1.0, SVG Export Plug-In . SVG Version: 2.1.0 Build 142)  -->
  <defs>
    <style>
      .st0 {
        fill: #ebc894;
      }
    </style>
  </defs>
  <path class="st0" d="M577.9,1.3c200.8,16.6,359.6,201.2,353.9,401.3-5.4,187-181.4,440.8-296.2,584.1-19,23.7-47.9,63.1-69.2,82.4-12,10.9-26.1,14-41.6,7.8s-59.2-63.9-71.1-78.5c-117.6-144.8-300.1-406-305.5-595.8C142.5,202.4,301.3,17.9,502.1,1.3c20.4-1.7,55.4-1.7,75.8,0ZM514.3,197.7c-84.3,8.6-155.7,82.3-167.8,165-23.7,162.1,150.6,280.5,292.5,197.7,180.1-105.1,91.3-384.7-124.7-362.7Z"/>
</svg>