<?xml version="1.0" encoding="UTF-8"?>
<svg id="Camada_1" xmlns="http://www.w3.org/2000/svg" version="1.1" viewBox="0 0 1080 1080">
  <!-- Generator: Adobe Illustrator 29.1.0, SVG Export Plug-In . SVG Version: 2.1.0 Build 142)  -->
  <defs>
    <style>
      .st0 {
        fill: #fff;
      }
    </style>
  </defs>
  <path class="st0" d="M1080,543.3c0,269.5-197.5,492.9-455.6,533.4v-377.3h125.9l23.9-156.1h-149.8v-107.3c1.9-40.6,23.9-78.4,87.9-78.4h68.1v-132.9s-61.8-10.5-120.9-10.5c-117.6,0-196.4,68-203.5,191.6,0,1-.1,2-.2,3.1,0,2-.2,4-.2,6.1,0,3.1-.1,6.3-.1,9.5v118.9h-137.1v156.1h137.1v377.3C197.5,1036.2,0,812.8,0,543.3S241.8,3.3,540,3.3s540,241.8,540,540Z"/>
  <polygon class="st0" points="318.5 699.4 455.6 699.4 455.6 699.4 318.5 699.4"/>
  <path class="st0" d="M780.5,357.6h0c0,.1-68.1.1-68.1.1-64,0-85.9,37.8-87.9,78.3,1.9-40.6,23.9-78.4,87.9-78.4h68.1Z"/>
</svg>