<?xml version="1.0" encoding="UTF-8"?>
<svg id="Camada_1" xmlns="http://www.w3.org/2000/svg" version="1.1" viewBox="0 0 1080 1080">
  <!-- Generator: Adobe Illustrator 29.1.0, SVG Export Plug-In . SVG Version: 2.1.0 Build 142)  -->
  <defs>
    <style>
      .st0 {
        fill: #fff;
      }
    </style>
  </defs>
  <path class="st0" d="M642.5,539.2c0,55.1-44.8,99.9-99.9,99.9s-99.9-44.8-99.9-99.9,44.8-99.9,99.9-99.9,99.9,44.8,99.9,99.9Z"/>
  <path class="st0" d="M666.4,282.2h-252.8c-72,0-130.6,58.6-130.6,130.6v252.8c0,72,58.6,130.6,130.6,130.6h252.8c72,0,130.6-58.6,130.6-130.6v-252.8c0-72-58.6-130.6-130.6-130.6ZM542.6,695.1c-86,0-155.9-69.9-155.9-155.9s69.9-155.9,155.9-155.9,155.9,70,155.9,155.9-69.9,155.9-155.9,155.9ZM707.6,409.9c-20.5,0-37.1-16.6-37.1-37.1s16.6-37.1,37.1-37.1,37.1,16.6,37.1,37.1-16.6,37.1-37.1,37.1Z"/>
  <path class="st0" d="M540,0C241.8,0,0,241.8,0,540s241.8,540,540,540,540-241.8,540-540S838.2,0,540,0ZM856.6,665.6c0,104.9-85.3,190.2-190.2,190.2h-252.8c-104.9,0-190.2-85.3-190.2-190.2v-252.8c0-104.9,85.3-190.2,190.2-190.2h252.8c104.9,0,190.2,85.3,190.2,190.2v252.8Z"/>
</svg>