<?xml version="1.0" encoding="UTF-8"?>
<svg id="Camada_1" xmlns="http://www.w3.org/2000/svg" version="1.1" viewBox="0 0 1080 1080">
  <!-- Generator: Adobe Illustrator 29.1.0, SVG Export Plug-In . SVG Version: 2.1.0 Build 142)  -->
  <defs>
    <style>
      .st0 {
        fill: #ebc894;
      }
    </style>
  </defs>
  <path class="st0" d="M592.3.3l71.7,11.6c295.6,65.2,480.6,366.3,395.2,660.8-93.4,322.1-464.7,475.1-760.8,318.5l-275,87.3c-10.1,1.9-15.8,2.4-23.3-5.4v-14.8l90.4-264.6C-104.6,459.2,116.9,32.7,502.5,2.3l3.3-2h86.4ZM168.6,915.1l142.3-44.3c22.2,9.6,42.4,24.2,64.9,34.2,322.8,143,673.9-150,576.2-491.9C874.7,142.2,551.5,24.7,316.3,180.7c-199.9,132.6-244.4,403.1-103.5,596.5l-44.2,137.9Z"/>
  <path class="st0" d="M393.7,279.2c18.3-1.6,30.3.5,41.4,16.4,19.9,28.4,30.5,82.1,48.7,113.6,7.1,33.2-23.5,55.9-41,79.5,34.5,51.3,82.8,102,137.5,131.8,6.7,3.6,28.9,15.1,35,15.6,7.3.7,42.1-51.8,52.7-59.3,11.3-7.9,23.5-6.2,35.9-2,22.1,7.6,91.7,39.8,109.5,52.8,17.5,12.8,13.7,37.4,10.1,56.2-12.6,66.7-82,101.3-145.6,96.2-149.1-11.9-317.4-153.7-376.2-287.7-39.1-89-21.5-203.2,92-213Z"/>
</svg>